<?xml version="1.0" encoding="utf-8"?>
<!-- Generator: Adobe Illustrator 28.3.0, SVG Export Plug-In . SVG Version: 6.00 Build 0)  -->
<svg version="1.1" id="Laag_1" xmlns="http://www.w3.org/2000/svg" xmlns:xlink="http://www.w3.org/1999/xlink" x="0px" y="0px"
	 viewBox="0 0 241.42 64.68" style="enable-background:new 0 0 241.42 64.68;" xml:space="preserve">
<path d="M241.42,0.81c0-0.49-0.16-0.81-0.41-0.81h-2.55c-0.24,0-0.41,0.32-0.57,0.89l-11.8,62.69c0,0.49,0.16,0.81,0.41,0.81h2.55
	c0.24,0,0.41-0.32,0.57-0.89L241.42,0.81z M196.62,26.19c1.36,0,3.92,0.34,4.43,3.83h-9.11C192.54,26.45,195.09,26.19,196.62,26.19
	 M212.97,31.98c0-10.9-7.15-16.35-16.52-16.35c-11.67,0-16.6,7.66-16.6,17.12c0,13.03,9.37,17.8,18.9,17.8
	c4.43,0,9.62-1.11,11.92-4.26c0.25-0.34,0.42-0.94,0.42-1.45c0-0.42-0.17-0.85-0.42-1.19l-2.3-3.83c-0.34-0.43-0.77-0.6-1.11-0.6
	c-0.17,0-0.26,0-0.43,0.09c-2.98,1.36-5.36,1.45-8.09,1.45c-2.21,0-6.13-0.42-6.73-4.17h19.16c1.02,0,1.79-0.77,1.79-1.79V31.98z
	 M143.47,48.33c0,1.02,0.77,1.79,1.79,1.79h8.34c1.11,0,1.79-0.77,1.79-1.79V32.24c0-2.9,1.11-5.37,3.92-5.37
	c4.09,0,4.34,2.47,4.34,5.37v16.09c0,1.02,0.77,1.79,1.79,1.79h8.34c1.11,0,1.79-0.77,1.79-1.79V31.04
	c0-8.09-3.75-15.41-13.54-15.41c-1.79,0-4.34,0.17-6.64,1.87V3.54c0-1.02-0.68-1.79-1.79-1.79h-8.34c-1.02,0-1.79,0.77-1.79,1.79
	V48.33z M126.53,40.16c-3.75,0-6.47-3.32-6.47-7.15c0-3.83,2.64-6.13,5.79-6.13c2.38,0,4.34,0.77,5.54,1.36c0,0,0.08,0.08,1.11,0.43
	H133c0.26,0,1.02-0.17,1.53-0.6l3.49-4.43c0.34-0.34,0.77-1.02,0.77-1.79c0-0.26-0.17-1.19-0.51-1.7c-3.24-3.07-8-4.51-12.35-4.51
	c-9.71,0-17.8,7.75-17.8,17.29c0,9.45,8.09,17.63,17.8,17.63c4.34,0,8.86-0.77,12.6-4.77c0.34-0.51,0.51-1.28,0.51-1.79
	c0-0.68-0.51-1.45-0.85-1.87l-3.32-3.49c-0.34-0.42-1.02-0.68-1.53-0.68c-0.6,0-1.36,0.34-2.04,0.77
	C129.51,39.9,127.97,40.16,126.53,40.16 M94.48,48.42c0.51,1.36,1.02,1.7,2.47,1.7h5.11c1.02,0,1.79-0.77,1.79-1.79V31.21
	c0-9.54-4.85-15.58-15.92-15.58c-3.07,0-5.79,0.08-10.99,2.13c-0.77,0.51-1.02,1.19-1.02,1.96c0,0.42,0.09,0.94,0.17,1.28l1.87,5.28
	c0.43,0.85,1.36,1.19,2.21,1.19c0.25,0,0.51,0,1.02-0.09c1.87-0.51,4.26-0.51,5.28-0.51c3.15,0,4.68,0.77,5.45,4.26
	c-1.87-1.02-5.02-1.28-6.73-1.28c-6.39,0-11.15,2.73-11.15,9.37c0,10.39,8.94,11.33,11.33,11.33c0.77,0,5.79-0.17,8.69-3.92
	L94.48,48.42z M88.78,41.01c-2.3,0-3.75-0.68-3.75-2.21c0-1.45,1.28-2.13,3.75-2.13c1.36,0,2.55,0.6,3.15,1.19v2.04
	C90.82,40.84,89.21,41.01,88.78,41.01 M45.29,17.76c-0.51-1.36-1.02-1.7-2.47-1.7h-4.34c-1.02,0-1.79,0.77-1.79,1.79v45.05
	c0,1.02,0.77,1.79,1.79,1.79h8.35c1.11,0,1.79-0.77,1.79-1.79V49.1c2.64,1.45,5.28,1.45,7.24,1.45c9.03,0,15.75-8.17,15.75-17.63
	c0-9.54-6.9-17.29-16.26-17.29c-2.81,0-6.56,0.51-9.88,2.89L45.29,17.76z M54.23,40.16c-3.07,0-5.62-2.55-5.62-7.15
	c0-3.75,2.64-6.13,5.62-6.13c3.07,0,5.45,2.38,5.45,6.13C59.68,37.52,57.3,40.16,54.23,40.16 M20.44,48.42
	c0.51,1.36,1.02,1.7,2.47,1.7h5.11c1.02,0,1.79-0.77,1.79-1.79V31.21c0-9.54-4.85-15.58-15.92-15.58c-3.07,0-5.79,0.08-10.98,2.13
	c-0.77,0.51-1.02,1.19-1.02,1.96c0,0.42,0.08,0.94,0.17,1.28l1.87,5.28c0.43,0.85,1.36,1.19,2.21,1.19c0.26,0,0.51,0,1.02-0.09
	c1.87-0.51,4.26-0.51,5.28-0.51c3.15,0,4.68,0.77,5.45,4.26c-1.87-1.02-5.02-1.28-6.73-1.28C4.77,29.85,0,32.58,0,39.22
	c0,10.39,8.94,11.33,11.33,11.33c0.77,0,5.79-0.17,8.69-3.92L20.44,48.42z M14.73,41.01c-2.3,0-3.75-0.68-3.75-2.21
	c0-1.45,1.28-2.13,3.75-2.13c1.36,0,2.55,0.6,3.15,1.19v2.04C16.78,40.84,15.16,41.01,14.73,41.01"/>
</svg>
