<?xml version="1.0" encoding="utf-8"?>
<!-- Generator: Adobe Illustrator 28.3.0, SVG Export Plug-In . SVG Version: 6.00 Build 0)  -->
<svg version="1.1" id="Layer_1" xmlns="http://www.w3.org/2000/svg" xmlns:xlink="http://www.w3.org/1999/xlink" x="0px" y="0px"
	 viewBox="0 0 976.76 1105" style="enable-background:new 0 0 976.76 1105;" xml:space="preserve">
<g>
	<g>
		<path d="M492.34,871.39c12.31,32.82,24.62,41.03,59.49,41.03h123.08c24.62,0,43.08-18.46,43.08-43.08V457.01
			c0-229.76-116.93-375.41-383.61-375.41c-73.85,0-139.49,2.05-264.63,51.29c-18.46,12.31-24.62,28.72-24.62,47.18
			c0,10.26,2.05,22.57,4.1,30.77l45.13,127.19c10.26,20.51,32.82,28.72,53.34,28.72c6.15,0,12.31,0,24.62-2.05
			c45.13-12.31,102.57-12.31,127.19-12.31c75.9,0,112.83,18.46,131.29,102.57c-45.13-24.62-121.03-30.77-162.06-30.77
			C114.88,424.19,0,489.83,0,649.84c0,250.27,215.4,272.84,272.84,272.84c18.46,0,139.49-4.1,209.24-94.36L492.34,871.39z
			 M354.89,692.92c-55.39,0-90.26-16.41-90.26-53.34c0-34.87,30.77-51.28,90.26-51.28c32.82,0,61.54,14.36,75.9,28.72v49.23
			C404.12,688.82,365.15,692.92,354.89,692.92z"/>
		<g>
			
				<rect x="309.89" y="530.11" transform="matrix(0.1595 -0.9872 0.9872 0.1595 182.3692 1319.2065)" width="1112.1" height="44.79"/>
		</g>
	</g>
</g>
</svg>
